<svg xmlns="http://www.w3.org/2000/svg" version="1.1" xmlns:xlink="http://www.w3.org/1999/xlink" xmlns:svgjs="http://svgjs.com/svgjs" width="100px" height="100px"><svg height="100px" width="100px" fill="#000000" xmlns="http://www.w3.org/2000/svg" xmlns:xlink="http://www.w3.org/1999/xlink" xml:space="preserve" style="shape-rendering:geometricPrecision;text-rendering:geometricPrecision;image-rendering:optimizeQuality;" viewBox="0 0 7.33333 7.33333" x="0px" y="0px" fill-rule="evenodd" clip-rule="evenodd"><defs><style type="text/css">

    .fil1 {fill:#155E75}
    .fil0 {fill:#155E75;fill-rule:nonzero}

  </style></defs><g>
  <path class="fil0" d="M2.31823 4.7618c0,-0.0441811 -0.0358189,-0.08 -0.08,-0.08 -0.0441811,0 -0.08,0.0358189 -0.08,0.08l0 1.28561 -0.962079 0c-0.0441811,0 -0.08,0.0358189 -0.08,0.08 0,0.0441811 0.0358189,0.08 0.08,0.08l1.04208 0c0.0441811,0 0.08,-0.0358189 0.08,-0.08l0 -1.36561z"></path><path class="fil0" d="M1.79245 4.35433c0,-0.0441811 -0.0358189,-0.08 -0.08,-0.08 -0.0441811,0 -0.08,0.0358189 -0.08,0.08l0 1.77307c0,0.0441811 0.0358189,0.08 0.08,0.08 0.0441811,0 0.08,-0.0358189 0.08,-0.08l0 -1.77307z"></path><path class="fil0" d="M1.26667 3.9096c0,-0.0441811 -0.0358189,-0.08 -0.08,-0.08 -0.0441811,0 -0.08,0.0358189 -0.08,0.08l0 2.2178c0,0.0441811 0.0358189,0.08 0.08,0.08 0.0441811,0 0.08,-0.0358189 0.08,-0.08l0 -2.2178z"></path><path class="fil0" d="M1.70971 4.68744c0.0441811,0 0.08,-0.0358189 0.08,-0.08 0,-0.0441811 -0.0358189,-0.08 -0.08,-0.08l-0.523039 0c-0.0441811,0 -0.08,0.0358189 -0.08,0.08 0,0.0441811 0.0358189,0.08 0.08,0.08l0.523039 0z"></path><path class="fil0" d="M2.23823 5.15585c0.0441811,0 0.08,-0.0358189 0.08,-0.08 0,-0.0441811 -0.0358189,-0.08 -0.08,-0.08l-1.05156 0c-0.0441811,0 -0.08,0.0358189 -0.08,0.08 0,0.0441811 0.0358189,0.08 0.08,0.08l1.05156 0z"></path><path class="fil0" d="M2.23823 5.67124c0.0441811,0 0.08,-0.0358189 0.08,-0.08 0,-0.0441811 -0.0358189,-0.08 -0.08,-0.08l-1.05156 0c-0.0441811,0 -0.08,0.0358189 -0.08,0.08 0,0.0441811 0.0358189,0.08 0.08,0.08l1.05156 0z"></path><path class="fil0" d="M6.06667 5.50833l-2.83403 0 0 0.537091 2.83403 0 0 -0.537091zm-2.91403 -0.16l2.99403 0c0.0441811,0 0.08,0.0358189 0.08,0.08l0 0.697091c0,0.0441811 -0.0358189,0.08 -0.08,0.08l-2.99403 0c-0.0441811,0 -0.08,-0.0358189 -0.08,-0.08l0 -0.697091c0,-0.0441811 0.0358189,-0.08 0.08,-0.08z"></path><path class="fil0" d="M5.01763 3.47921l0.457657 0c0.0441811,0 0.08,0.0358189 0.08,0.08l0 1.86912c0,0.0441811 -0.0358189,0.08 -0.08,0.08l-0.457657 0c-0.0441811,0 -0.08,-0.0358189 -0.08,-0.08l0 -1.86912c0,-0.0441811 0.0358189,-0.08 0.08,-0.08zm0.377657 0.16l-0.297657 0 0 1.70912 0.297657 0 0 -1.70912z"></path><path class="fil0" d="M5.85364 2.42978l-1.21435 0 0 1.04943 1.21435 0 0 -1.04943zm-1.29435 -0.16l1.37435 0c0.0441811,0 0.08,0.0358189 0.08,0.08l0 1.20943c0,0.0441811 -0.0358189,0.08 -0.08,0.08l-1.37435 0c-0.0441811,0 -0.08,-0.0358189 -0.08,-0.08l0 -1.20943c0,-0.0441811 0.0358189,-0.08 0.08,-0.08z"></path><path class="fil0" d="M2.04147 1.35291l0.107906 -0.186894 -0.000165354 -9.44882e-005c0.0220906,-0.0382638 0.0710197,-0.051374 0.109283,-0.0292835 0.000700787,0.000405512 0.0013937,0.000818898 0.00207874,0.00124409l2.3359 1.23663 -0.037189 0.070626 0.0374291 -0.0707047c0.0275472,0.0145827 0.0430748,0.0429764 0.0425709,0.0721496l0 0.611894c0,0.0441811 -0.0358189,0.08 -0.08,0.08 -0.0193071,0 -0.0370157,-0.00683858 -0.0508386,-0.0182283l-2.44529 -1.65672 -0.00019685 0.000287402c-0.0365118,-0.0247323 -0.0461024,-0.0743465 -0.0214921,-0.110906zm0.207669 -0.0404488l-0.035126 0.0608425 2.26527 1.53475 0 -0.414961 -2.23015 -1.18063z"></path><path class="fil0" d="M2.38337 3.49702c0,0.0441811 0.0358189,0.08 0.08,0.08 0.0441811,0 0.08,-0.0358189 0.08,-0.08l0 -1.86064c0,-0.0441811 -0.0358189,-0.08 -0.08,-0.08 -0.0441811,0 -0.08,0.0358189 -0.08,0.08l0 1.86064z"></path><path class="fil0" d="M2.24691 2.9982c-0.0441811,0 -0.08,0.0358189 -0.08,0.08 0,0.0441811 0.0358189,0.08 0.08,0.08l0.432921 0c0.0441811,0 0.08,-0.0358189 0.08,-0.08 0,-0.0441811 -0.0358189,-0.08 -0.08,-0.08l-0.432921 0z"></path><path class="fil0" d="M2.45238 3.4114c-0.0436614,0.00603937 -0.0741654,0.0463386 -0.068126,0.09 0.00603937,0.0436614 0.0463386,0.0741654 0.09,0.068126 0.0467717,-0.00661811 0.0928661,0.00476772 0.130272,0.0295354 0.0368583,0.0244055 0.065315,0.0619213 0.077689,0.108098 0.0135079,0.0504252 0.0053937,0.101406 -0.0186457,0.143047 -0.0239409,0.0414724 -0.063937,0.073874 -0.114295,0.0873661 -0.037185,0.00996457 -0.0744528,0.00826378 -0.107917,-0.00283858 -0.0347913,-0.0115472 -0.0658346,-0.0331181 -0.0888071,-0.0622205 -0.0272677,-0.0345157 -0.0773583,-0.0403937 -0.111874,-0.013126 -0.0345157,0.0272677 -0.0403937,0.0773583 -0.013126,0.111874 0.0423425,0.0536417 0.0995984,0.0934173 0.163807,0.114724 0.0625315,0.020748 0.131354,0.0241378 0.199169,0.00596457 0.0926102,-0.024811 0.166531,-0.0850472 0.211169,-0.162366 0.0445394,-0.0771457 0.059689,-0.171142 0.0348976,-0.263677 -0.0228583,-0.0853071 -0.0755866,-0.154709 -0.143941,-0.199972 -0.0690472,-0.0457205 -0.154051,-0.0667323 -0.240272,-0.0545354z"></path></g>
    </svg><style>@media (prefers-color-scheme: light) { :root { filter: none; } }
@media (prefers-color-scheme: dark) { :root { filter: none; } }
</style></svg>