<?xml version="1.0" standalone="no"?>
<!DOCTYPE svg PUBLIC "-//W3C//DTD SVG 20010904//EN"
 "http://www.w3.org/TR/2001/REC-SVG-20010904/DTD/svg10.dtd">
<svg version="1.0" xmlns="http://www.w3.org/2000/svg"
 width="700.000000pt" height="700.000000pt" viewBox="0 0 700.000000 700.000000"
 preserveAspectRatio="xMidYMid meet">
<metadata>
Created by potrace 1.14, written by Peter Selinger 2001-2017
</metadata>
<g transform="translate(0.000000,700.000000) scale(0.100000,-0.100000)"
fill="#000000" stroke="none">
<path d="M1470 6989 c-27 -10 -29 -12 -103 -139 -83 -140 -116 -210 -111 -228
18 -55 31 -71 92 -113 37 -25 140 -94 230 -154 l162 -110 0 -897 c0 -494 -3
-898 -7 -899 -5 0 -54 -1 -110 -2 -86 -2 -106 -5 -130 -23 -55 -41 -60 -117
-12 -166 22 -21 34 -23 141 -26 l117 -4 3 -255 3 -255 32 -28 c31 -28 37 -29
115 -27 99 2 144 -17 202 -85 142 -165 20 -423 -198 -419 -67 1 -116 23 -177
78 -33 29 -65 54 -72 54 -70 8 -115 -18 -135 -75 -16 -49 3 -90 68 -149 93
-84 212 -129 330 -126 358 11 576 392 403 705 -60 109 -200 212 -311 230 l-42
7 0 173 0 174 105 0 c57 0 115 5 129 12 51 22 74 96 47 146 -23 44 -59 57
-161 59 -52 1 -101 2 -107 2 -10 1 -13 172 -13 821 0 451 2 820 4 820 3 0 145
-96 318 -212 172 -117 392 -266 488 -331 96 -65 274 -185 395 -267 121 -82
227 -154 235 -160 8 -5 53 -36 100 -68 47 -32 184 -125 305 -207 433 -293 591
-400 660 -448 39 -27 85 -58 103 -69 l32 -20 0 -324 c0 -275 2 -330 16 -355
27 -53 57 -59 321 -58 131 0 249 0 263 -1 l25 0 0 -1163 -1 -1162 -1209 -2
c-666 -1 -1222 -2 -1237 -2 -16 -1 -42 -14 -60 -30 l-33 -29 -2 -512 c-3 -564
-4 -553 59 -582 29 -14 271 -16 2088 -16 1656 0 2061 3 2087 13 66 27 64 9 64
569 1 466 -1 508 -17 535 -31 53 -42 54 -482 54 -224 0 -409 3 -412 7 -7 11
-5 2309 2 2316 4 3 121 5 262 5 201 -1 264 2 291 13 68 29 65 -18 65 930 l0
856 -29 32 -29 33 -986 0 -985 0 -29 -28 -29 -28 -54 29 c-30 16 -94 51 -144
77 -49 26 -121 65 -160 85 -38 21 -119 63 -180 95 -60 32 -141 74 -180 95 -38
20 -115 61 -170 90 -55 29 -122 65 -150 80 -27 15 -104 56 -170 90 -66 35
-190 100 -275 145 -85 46 -195 104 -245 130 -49 26 -126 67 -170 90 -44 23
-125 66 -180 95 -55 29 -131 70 -170 90 -73 39 -153 82 -320 170 -55 29 -131
70 -170 90 -202 109 -328 170 -348 169 -12 0 -33 -5 -47 -10z m342 -378 c243
-128 342 -181 473 -251 39 -20 124 -65 190 -100 66 -34 152 -79 190 -100 87
-46 201 -107 325 -172 93 -49 170 -90 340 -181 47 -25 114 -60 150 -79 36 -19
115 -60 175 -92 61 -32 153 -81 205 -109 52 -27 118 -62 145 -77 28 -15 109
-58 180 -96 72 -37 171 -90 220 -116 50 -26 113 -60 141 -74 l51 -27 0 -283 0
-283 -134 92 c-74 51 -142 97 -151 102 -9 6 -112 74 -227 153 -116 79 -374
254 -574 390 -702 476 -907 614 -989 670 -46 32 -93 63 -105 70 -12 7 -116 78
-232 157 -115 79 -314 214 -442 300 l-232 157 22 39 c12 21 25 39 29 39 4 0
117 -58 250 -129z m4655 -1395 c4 -4 8 -1267 4 -1398 l-1 -27 -825 0 c-454 0
-825 3 -826 7 -1 9 -1 412 0 964 l1 457 118 3 c207 5 1523 0 1529 -6z m-619
-2808 l-3 -1163 -197 -1 c-132 0 -199 3 -201 10 -2 6 -4 530 -4 1164 l0 1152
204 0 203 0 -2 -1162z m902 -1387 c13 -1 15 -48 14 -363 l-1 -363 -1931 -3
-1932 -2 0 364 c0 333 1 365 17 368 13 2 3783 1 3833 -1z"/>
<path d="M34 3276 l-34 -34 0 -1541 c0 -1359 2 -1545 15 -1571 32 -62 2 -60
812 -60 789 0 767 -1 805 51 18 24 19 58 19 930 0 497 0 933 -1 967 0 59 -3
67 -34 98 -38 38 -77 44 -126 19 -51 -26 -57 -53 -56 -238 1 -141 -1 -168 -14
-171 -8 -3 -121 -4 -250 -3 l-235 2 0 450 c-1 424 -2 452 -20 478 -45 68 -155
59 -186 -16 -7 -16 -12 -81 -13 -152 l-1 -124 -247 1 -248 1 0 181 c0 99 -1
299 -3 444 l-2 264 -33 29 c-47 43 -102 41 -148 -5z m652 -1135 l31 -1 -1
-207 -1 -208 -245 0 -244 0 -6 23 c-3 12 -4 106 -2 207 2 161 5 184 19 187 14
2 342 2 449 -1z m25 -640 c3 0 5 -109 5 -241 l0 -240 -247 0 -248 0 -3 138
c-2 75 -2 184 0 242 l3 105 242 -1 c133 -1 245 -2 248 -3z m720 -23 c1 -16 2
-125 2 -243 l2 -215 -250 2 -250 3 -1 230 c0 127 1 235 3 240 2 6 94 10 248
10 l245 0 1 -27z m-750 -677 l35 -1 0 -255 0 -255 -247 0 -248 0 -3 63 c-2 34
-2 148 0 254 l3 192 27 3 c22 2 273 2 433 -1z m748 -9 c3 -5 6 -120 5 -254 l0
-243 -250 -3 -249 -2 0 252 0 253 30 5 c57 10 457 3 464 -8z"/>
</g>
</svg>
